<svg version="1" xmlns="http://www.w3.org/2000/svg" width="346.667" height="346.667" viewBox="0 0 260.000000 260.000000"><path d="M0 130v130h260V0H0v130zM126 4.8c0 .5-1.3.7-3 .4-2.6-.4-3-.1-3 1.8 0 1.3-.8 2.4-2 2.7-2.4.6-2.9 6.3-.6 6.3 1.1 0 1.2.5.3 2.3-.8 1.8-2.6 2.7-7.8 4-3.8.8-7.7 1.3-8.7 1-1.1-.2-2.3 0-2.6.6-.4.6-1.2 1.1-1.9 1.1-.6 0-.1-.7 1.1-1.6 1.3-.9 3-1.3 3.8-1 1.9.7 13.7-2.3 14.6-3.8.4-.6.3-1.5-.2-2-.6-.6-1-2.5-1-4.3 0-2.6.4-3.3 2-3.3 1.3 0 2-.7 2-1.8 0-1 .3-2.2.7-2.5.9-1 6.3-.9 6.3.1zm-2 3.7c0 2 .5 2.5 2.5 2.5 1.6 0 2.5.6 2.5 1.5 0 1.2-1.3 1.5-6 1.5s-6-.3-6-1.5c0-.8.9-1.5 2-1.5 1.3 0 2-.7 2-1.8 0-1 .3-2.2.7-2.5 1.3-1.4 2.3-.6 2.3 1.8zm6.8 3.9c.2 1.5-.2 3.3-.8 4.1-1.7 2.1-.4 3.4 4.1 4.1 2.2.4 4.1 1 4.4 1.4.2.4-1.7.3-4.3-.2-3.1-.7-5.3-1.8-6.5-3.4-1.7-2.3-1.7-2.4.3-2.4 1.6 0 2-.6 2-3 0-2.3-.4-3-2-3-1.1 0-2-.4-2-1 0-.5.9-.6 2.3-.1s2.3 1.8 2.5 3.5zm-6.8 6.2c0 .9.9 1.8 2 2.1 1.1.3 2 1.2 2 1.9 0 1-1.4 1.4-5 1.4-3.8 0-5-.4-5-1.5 0-.8.7-1.5 1.5-1.5s1.5-.9 1.5-2 .7-2 1.5-2 1.5.7 1.5 1.6zm-8.3 6c-.9.9-2.8-.6-2.1-1.8.4-.6 1-.6 1.7.1.6.6.8 1.3.4 1.7zm17.3-.5c0 .5-.7.9-1.5.9-1.5 0-2-1.2-.9-2.3.8-.8 2.4.1 2.4 1.4zm17 .2c1.3.9 3.1 1.7 4 1.7 1.8 0 9 7.7 9 9.6 0 .8.5 2.3 1.2 3.4 1 1.5.9 2.5-.2 4.7-1.4 2.8-8 9.7-8 8.4 0-.4 1.3-2 2.9-3.5 3.8-3.7 5.8-8.3 4.2-9.9-.6-.6-1.1-1.9-1.1-2.8 0-4.2-14.1-13.5-18.7-12.3-1.1.3-2.3.2-2.6-.3-1-1.6 6.8-.8 9.3 1zm-39 .2c0 .8-.4 1.5-1 1.5-.5 0-1-.7-1-1.5s.5-1.5 1-1.5c.6 0 1 .7 1 1.5zm26 0c0 .8-.4 1.5-1 1.5-.5 0-1-.7-1-1.5s.5-1.5 1-1.5c.6 0 1 .7 1 1.5zm-35 1.6c0 .5-.7.9-1.5.9-1.5 0-2-1.2-.9-2.3.8-.8 2.4.1 2.4 1.4zm45 0c0 .5-.7.9-1.5.9-1.5 0-2-1.2-.9-2.3.8-.8 2.4.1 2.4 1.4zM94.5 26c-.3.5-1.2 1-1.9 1-1.9 0-8.6 6.8-8.6 8.8 0 1-.5 2.3-1.1 2.9-1.6 1.6.5 6.6 4 9.6 1.5 1.2 3.3 3.8 4 5.7.8 1.9 1.9 4.1 2.5 4.9.9 1.2.8 1.3-.2.7-.8-.5-2.2-2.8-3.2-5.1-1-2.4-2.8-4.9-3.9-5.5-3.2-1.7-5.5-7.9-4-11 3.5-7.5 4.5-9 5.5-9 .7 0 1.4-.6 1.7-1.4.3-.8 1.6-1.6 2.9-1.9 1.3-.2 2.4-.5 2.6-.6.2 0 0 .3-.3.9zm12.5 0c0 .5-.7 1-1.6 1-.8 0-1.2-.5-.9-1 .3-.6 1-1 1.6-1 .5 0 .9.4.9 1zm19-.1c0 1.6-2 2.3-4.6 1.7-3.6-.9-2.9-2.6 1.1-2.6 1.9 0 3.5.4 3.5.9zm16 .1c0 .5-.7 1-1.5 1s-1.5-.5-1.5-1c0-.6.7-1 1.5-1s1.5.4 1.5 1zm-44 2c0 .5-.7 1-1.5 1s-1.5-.5-1.5-1c0-.6.7-1 1.5-1s1.5.4 1.5 1zm16 0c-.8.5-2.3 1-3.2 1-.9 0-3 1.7-4.7 3.7-2.2 2.7-2.9 3.1-2.4 1.5.8-3.2 6-7.2 9.1-7.2 2.1 0 2.4.2 1.2 1zm23.8.6c2.6 1.8 5.8 7.4 4.2 7.4-.5 0-1-.6-1-1.3 0-1.9-3.9-5.2-7.5-6.5-2.9-1-2.9-1-.5-1.1 1.4-.1 3.6.6 4.8 1.5zM151 28c0 .5-.7 1-1.5 1s-1.5-.5-1.5-1c0-.6.7-1 1.5-1s1.5.4 1.5 1zm-57.8 1.5c0 .5-.5 1.1-1.1 1.3-.6.2-1.1-.4-1.1-1.3s.5-1.5 1.1-1.3c.6.2 1.1.8 1.1 1.3zm10.8.6c0 .5-.7.9-1.5.9-1.5 0-2-1.2-.9-2.3.8-.8 2.4.1 2.4 1.4zm15.9 2.2c-.1 3.1-.1 3.1-.9.7-1.1-3.6-1.1-5.2 0-4.5.6.3 1 2.1.9 3.8zm8-2.6c0 1-.4 2.7-.9 3.8-.7 1.6-.9 1.3-.9-1.8-.1-2 .4-3.7.9-3.7.6 0 1 .8.9 1.7zm16.2.6c-1.3 1.3-2.6.3-1.6-1.2.3-.6 1.1-.8 1.7-.5.6.4.6 1-.1 1.7zm10.9-.2c0 .5-.7.9-1.5.9-1.5 0-2-1.2-.9-2.3.8-.8 2.4.1 2.4 1.4zm-30.7.4c.7 1.6-.8 2.9-2.3 2-1-.6-.2-3.5 1-3.5.4 0 1 .7 1.3 1.5zm-24.3-.1c0 .3-.4.8-1 1.1-.5.3-1 .1-1-.4 0-.6.5-1.1 1-1.1.6 0 1 .2 1 .4zm17 3.1c0 2.2-.8 4.3-2.1 5.6-2.8 2.8-2.3 7.9.9 9.5 1.6.8 2 1.4 1.2 1.9-.6.4-1.9 0-2.9-.9s-2.3-1.6-2.9-1.6c-.7 0-1.1-.3-1.1-.8.5-2.8-.4-5.2-2.1-5.7-1.4-.5-2-1.5-2-3.8 0-4.2 3.4-7.7 7.7-7.7 3.1 0 3.3.2 3.3 3.5zm20.7-1.3c3.6 4 3.9 8.8.7 8.8-.8 0-2 1.2-2.6 2.6-1.1 2.3-1 2.9 1 4.4 1.4 1.2 1.8 2.1 1.2 2.5-.6.4-1.7-.1-2.5-1.1-1.3-1.8-1.4-1.8-3.2-.1-2.1 1.8-4.3 2.3-4.3.9 0-.5 1.1-1.4 2.5-2 3.2-1.5 3.4-6.3.5-9.2-1.2-1.2-2-3.3-2-5.5 0-3.3.2-3.5 3.3-3.5 2.2 0 4 .8 5.4 2.2zm11.1 2.3c-.2 1.2-.7.7-1.5-1.6-1.2-3-1.1-3.2.3-1.7.9.8 1.4 2.3 1.2 3.3zM90 31.8c0 1.3-1.2 2.2-2.2 1.6-1-.6-.1-2.4 1.3-2.4.5 0 .9.4.9.8zm68.2.7c0 .5-.5 1.1-1.1 1.3-.6.2-1.1-.4-1.1-1.3s.5-1.5 1.1-1.3c.6.2 1.1.8 1.1 1.3zm-64.6 1.8c-1.5 1.3-3.4 3.6-4.1 5.3-1 2.1-1.4 2.4-1.4 1C88 38 92.7 32 94.8 32c1.3 0 1 .6-1.2 2.3zm61.2-.1c1.1 1.3 2.3 3.6 2.7 5.3l.6 3-1.4-3.1c-.8-1.7-2.8-4-4.3-5.2-1.9-1.4-2.4-2.1-1.3-2.2.8 0 2.5 1 3.7 2.2zm-57.1 2c-.3.7-.5.2-.5-1.2s.2-1.9.5-1.3c.2.7.2 1.9 0 2.5zm4.3-2.8c0 .3-.4.8-1 1.1-.5.3-1 .1-1-.4 0-.6.5-1.1 1-1.1.6 0 1 .2 1 .4zm44 .6c0 .5-.4 1-1 1-.5 0-1-.5-1-1 0-.6.5-1 1-1 .6 0 1 .4 1 1zm-58.2 2.1c-.2.6-.8 1-1.3 1s-1.1-.4-1.3-1c-.2-.6.4-1.1 1.3-1.1s1.5.5 1.3 1.1zm8.7 2.3c.4 1.9.2 4.3-.4 5.4-.5 1-.8 3.6-.4 5.6.4 2.4.2 3.6-.6 3.6-.7 0-1.1-.8-1-1.8.4-3-1.3-7.2-2.8-7.2-1.9 0-1-4.6 1.4-7.3 2.3-2.5 3.1-2.1 3.8 1.7zm29.3-.7c.2 1.6.9 2.2 2.5 2 1.5-.1 2.4.6 3.1 2.5 1.1 3.2-.5 5.8-3.6 5.8-2.3 0-2 1.9.5 3.4 1.2.8 2.3.7 3.9-.3s2.3-1 2.6-.2c.5 1.6 4.2 1.3 4.9-.4.3-.9-.2-2.1-1.2-2.9-2.4-1.7-1.5-5.2 1.2-4.9 1.7.2 2.2-.4 2.5-2.5.2-1.9.9-2.8 2.6-3 2.2-.3 2.7.7 2.3 5-.1 1 .3 1.8.8 1.8.6 0 1.1 1.1 1.1 2.5 0 1.8-.7 2.8-2.6 3.5-2.1.8-2.4 1.3-1.4 2.5.6.7 1.7 1.2 2.5.9.7-.3 1.6-.1 1.9.5 1.2 1.9 3.6-.1 3.6-2.9 0-3.7 1-6.1 2.2-5.4.5.3 1.8-.2 2.8-1.1 1.1-1 2-1.3 2.4-.6.4.6-.5 2.1-1.9 3.3-1.4 1.2-3.5 4.2-4.5 6.5-1.8 4.1-4.1 5.5-5.5 3.3-.3-.6-1.7-.7-2.9-.4-1.7.4-2.8 0-3.9-1.6-1.2-1.7-1.5-1.8-2-.5-.8 1.9-4.1 1.9-5.7 0-1.2-1.4-1.5-1.4-3 0-2.3 2.1-3.5 1.9-5.9-1.1l-2.1-2.7-2.1 2.7c-2.3 3-4.1 3.3-5.9 1.1-1.2-1.4-1.5-1.4-3 0-2 1.8-4.2 1.9-5.9.2-1-1-1.4-.8-2.2.6-.8 1.4-1.8 1.7-4 1.2-1.8-.4-2.9-.3-2.9.4 0 2.8-3.3.7-4.9-3.2-1.1-2.4-3.1-5.4-4.7-6.6-3.3-2.6-2.4-4 1.4-2 3.5 1.8 4.2 2.8 4.2 6 0 2.7 2.4 4.6 3.5 2.8.4-.5 1.4-.8 2.3-.7 2.4.4 2.7-2.8.2-3.5-1.4-.3-2-1.3-2-3.1 0-1.4.5-2.6 1.1-2.6.6 0 .8-.8.4-2-.3-1-.1-2.8.5-4 .9-1.6 1.5-1.8 3-1 1 .5 2 2 2.2 3.2.2 1.3.9 2.4 1.6 2.4.6.1 1.7.2 2.2.3 1.6.2 1.1 3.9-.7 4.9-2.1 1.2-1 4.2 1.7 4.2 1.1 0 2-.7 2-1.5 0-1.2.5-1.1 2.9.3 2.4 1.4 3.1 1.4 4.5.3 2.1-1.8 2-3.1-.3-3.1-1 0-2.4-.7-3.1-1.6-1.8-2.1-.1-6.9 2.4-6.9 1 0 2.3-1 2.7-2.3 1.2-3.1 5.3-2.7 5.7.5zm28.1-.1c2.7 3.4 2.6 5.1-.1 7.3-1.4 1.2-2.1 2.8-2 4.9 0 1.8-.4 3.2-.9 3.2s-.9-.3-1-.8c0-.4-.2-3-.3-5.7-.5-5.9.3-11.5 1.4-11.5.5 0 1.8 1.2 2.9 2.6zm7.1-1.8c0 1.3-1.2 2.2-2.2 1.6-1-.6-.1-2.4 1.3-2.4.5 0 .9.4.9.8zm-75 5.3c0 .5-.4.9-1 .9-.5 0-1-.7-1-1.6 0-.8.5-1.2 1-.9.6.3 1 1 1 1.6zm76-.6c0 .8-.4 1.5-1 1.5-.5 0-1-.7-1-1.5s.5-1.5 1-1.5c.6 0 1 .7 1 1.5zM110 50c0 .5-.4 1-.9 1-.6 0-1.3-.5-1.6-1-.3-.6.1-1 .9-1 .9 0 1.6.4 1.6 1zm14 5c0 .5-.4 1-1 1-.5 0-1-.5-1-1 0-.6.5-1 1-1 .6 0 1 .4 1 1zm32-.2c0 .5-.7 1.7-1.5 2.8-1.4 1.8-1.4 1.7-.4-.9 1.2-2.7 1.9-3.4 1.9-1.9zm-18 3.1c3.3.4-2.6.7-14.5.7-11 0-18-.3-15.5-.7 6.1-.8 23.3-.9 30 0zm-36.3 1.7c-.3.3-1.2.4-1.9.1-.8-.3-.5-.6.6-.6 1.1-.1 1.7.2 1.3.5zm47.8.4c2.5 1.1-.1 1.1-3.5 0-2-.6-2.1-.8-.5-.8 1.1 0 2.9.3 4 .8zm-51.8.6c-.3.3-1.2.4-1.9.1-.8-.3-.5-.6.6-.6 1.1-.1 1.7.2 1.3.5zm9 .6c-.2.8-1.5 1.2-3 1-2.7-.3-3.1.3-2.8 4 .3 2.8-1.4 2.1-2.6-1.1-1-2.9-1-3 2.6-3.9 5.1-1.4 6.3-1.4 5.8 0zm6.5 1.3c-.3 2 0 2.5 1.6 2.5 2.7 0 3.7-1.7 2.2-3.5-1.1-1.3-.7-1.5 2.1-1.4 1.9 0 2.8.3 2.2.6-1.8.7-1.6 3 .2 3.7 1.6.6 4.5-.2 4.5-1.3 0-.4-.5-1.2-1.2-1.9-.9-.9-.5-1.2 2.1-1.2 2.8 0 3.2.2 2.1 1.5-1.5 1.8-.5 3.5 2.2 3.5 1.6 0 1.9-.5 1.6-2.5-.4-1.9-.1-2.5 1.2-2.5s1.7.8 1.6 3l-.1 3h-12.7c-11 0-12.7-.2-12.2-1.5.4-.8.1-2.2-.6-3-1-1.3-.8-1.5 1.2-1.5 2.1 0 2.5.4 2 2.5zm31.1-1.4c3.3.9 3.8 1.4 3.3 3.2-.3 1.2-.6 2.5-.6 2.9 0 .5-.6.8-1.3.8-.7 0-1.3-1.2-1.2-2.8 0-2.2-.4-2.7-2.4-2.7-1.4 0-2.6-.6-2.9-1.3-.5-1.5.2-1.5 5.1-.1zm-48.6 7c2.1 2.1.1 5.9-4.8 9C83.4 81.9 74 92.6 69 102.3c-2.5 4.7-4.6 8.4-4.8 8.2-.2-.2 1.5-4 3.9-8.5 4.7-9 16.5-22.5 22.9-26.1 4.2-2.4 5.4-5.6 3.3-8.5-.7-1-1.3-2.9-1.2-4.3.1-2.2.2-2.1.9.7.4 1.9 1.2 3.8 1.7 4.3zm56-.8c-1.8 2.7-.7 6.1 2.5 7.8 5 2.7 17.1 15.7 21.8 23.5 4.7 7.7 11.1 24.1 10.9 28 0 1.1-.9-1.1-1.9-4.7-1.1-3.6-2.8-9-4-11.9-4.7-12-17.6-28.2-26.6-33.5-4.6-2.7-6.2-6.8-3.8-9.2.8-.8 1.5-2.6 1.5-4.1.2-2.5.2-2.5.6-.4.3 1.3-.2 3.3-1 4.5zM109 63c0 .5-.5 1-1.1 1-.5 0-.7-.5-.4-1 .3-.6.8-1 1.1-1 .2 0 .4.4.4 1zm7 0c0 .5-.4 1-1 1-.5 0-1-.5-1-1 0-.6.5-1 1-1 .6 0 1 .4 1 1zm15.5 0c.3.5.1 1-.4 1-.6 0-1.1-.5-1.1-1 0-.6.2-1 .4-1 .3 0 .8.4 1.1 1zm7 0c.3.5-.1 1-1 1s-1.3-.5-1-1c.3-.6.8-1 1-1 .2 0 .7.4 1 1zM104 64.5c0 .8-.4 1.5-1 1.5-.5 0-1-.7-1-1.5s.5-1.5 1-1.5c.6 0 1 .7 1 1.5zm-7 1c0 .8-.2 1.5-.4 1.5s-.6-.7-1-1.5c-.3-.8-.1-1.5.4-1.5.6 0 1 .7 1 1.5zm52.7.7c-.3.8-.6.5-.6-.6-.1-1.1.2-1.7.5-1.3.3.3.4 1.2.1 1.9zM107 66c0 .5-.4 1-1 1-.5 0-1-.5-1-1 0-.6.5-1 1-1 .6 0 1 .4 1 1zm34 0c0 .5-.7 1-1.6 1-.8 0-1.2-.5-.9-1 .3-.6 1-1 1.6-1 .5 0 .9.4.9 1zm-4.6 3.6c13.2 3.4 26.9 13.8 36.1 27.5 9.4 14 13.5 27.6 14.2 47 .6 15.4-.3 22.7-4.7 36.3-3.1 9.7-10.5 22.3-16.8 28.8l-3.6 3.8h-13.8c-13.1 0-13.8-.1-13.8-2 0-1.3 1.2-2.5 3.3-3.5 11.7-5.3 18.4-12.1 24.8-25 6-12.3 7.4-18.8 7.3-34.5-.2-17.7-2.8-28.2-9.8-38.7l-4.8-7.3 3.3-2.7c4.8-4.1 5.8-4.6 7.5-3.3 2.1 1.8 1.7.4-.8-3s-3.8-3.9-3.1-1.1c.3 1 0 2.1-.5 2.5-1.1.6-3.2-4.4-3.2-7.6 0-1.5-.3-1.7-1.9-.8-1.1.5-3 1-4.2 1-1.3 0-3.3 1-4.6 2.2-2.2 2-2.7 2.1-6.6.9-2.3-.7-6.4-1.9-9.2-2.7-19.4-5.8-42.1 9.6-51.1 34.8-8.7 24.2-3.5 56.4 11.9 73.5 2 2.2 2 2.3.2 4.3-1 1.1-2.5 1.8-3.2 1.5-4.9-1.9-4.6-2.1-4 2.2.5 3.2.3 4.4-1.2 5.7-1.8 1.6-2 1.5-5.6-2.6-27-31.3-25.8-88.8 2.6-119.2 15.4-16.5 35.5-23.1 55.3-18zm11.7 1c.6.8.7 1.4.2 1.4-1.8 0-7.3-2.2-7.3-2.9 0-1.2 5.9 0 7.1 1.5zm-45.6-.1c-4.2 2-6.1 2-4.5 0 .7-.8 2.7-1.5 4.4-1.4l3.1.1-3 1.3zM115 93.9c0 4.4-.4 5.2-3 7.1-3.6 2.5-4.1 1.8-3.6-5.3.2-4.9 1.5-6.7 4.9-6.7 1.4 0 1.7.9 1.7 4.9zm14-3.9c0 .6-2.7 1-6 1s-6-.4-6-1 2.7-1 6-1 6 .4 6 1zm27 1.6c1 1.1 1.1 2.3.4 4.2-1.7 4.8-8.4 3.8-8.4-1.2 0-4.3 5.3-6.3 8-3zM107 94c0 .5-1.2 1-2.7 1-2.2 0-2.5-.2-1.3-1 2-1.3 4-1.3 4 0zm20.5 0c-.3.5-2.8 1-5.6 1-2.7 0-4.9-.5-4.9-1 0-.6 2.5-1 5.6-1 3.4 0 5.3.4 4.9 1zm14.5 0c1.1.7-.5 1-5.2 1-3.9 0-6.8-.4-6.8-1 0-1.3 10-1.3 12 0zm-36.6 2.6c3.1 1.2 1.6 2.4-2.9 2.4-2.5 0-4.5-.4-4.5-.9 0-1.7 4.5-2.6 7.4-1.5zm20.1.3c.3.5.1 1.2-.5 1.6-.5.3-1-.1-1-.9 0-1.8.6-2.1 1.5-.7zm18.9-.3c3.8 1.4 1 2.4-6.9 2.4-7.8 0-9.6-.5-7.8-2.3.8-.9 12.6-.9 14.7-.1zM120 98.5c0 .3-2.3 1.9-5.1 3.6-2.7 1.7-4.8 3.4-4.5 3.6.3.3 2.8-.9 5.5-2.6 2.8-1.7 5.1-2.7 5.1-2.3 0 1.1-14 9.1-18.8 10.7-3.6 1.3-3.7 1.3-4.3-1.3-.6-3.2-.1-4.2 1.1-2.2.7 1.1 1.3 1.2 3.5.2 3.2-1.5 3.8-1.5 3-.2-.9 1.5.9 1.2 3.1-.6 1.8-1.5 1.8-1.5-.3-.9-3.9 1.1-2.6-.2 4.5-4.4 7.1-4.3 7.2-4.4 7.2-3.6zm-13 2.5c0 .6-2.9 1-6.6 1-4.1 0-6.3-.4-5.9-1 .3-.6 3.3-1 6.6-1s5.9.4 5.9 1zm18 0c0 .5-.4 1-1 1-.5 0-1-.5-1-1 0-.6.5-1 1-1 .6 0 1 .4 1 1zm7-.6c0 .2-.7.9-1.5 1.6-1.2 1-1.5 1-1.5-.4 0-.9.7-1.6 1.5-1.6s1.5.2 1.5.4zm11.5.6c.4.6-1.2 1-3.9 1-2.5 0-4.6-.5-4.6-1 0-.6 1.8-1 3.9-1 2.2 0 4.3.4 4.6 1zm6 .2c2.2 1 2.5 1.7 2.5 6.5 0 4.9-.2 5.3-2.3 5.3-3.5 0-4.7-1.9-4.7-7.7 0-5.6.4-6 4.5-4.1zm-15.9 2.4c-.3.9-.6 2-.6 2.5 0 1.5-5.3.6-5.8-1-.3-.9.1-1.1 1.6-.7 1.3.4 2.2.1 2.6-.9.3-.8 1-1.5 1.7-1.5.6 0 .8.7.5 1.6zm-28 1.3c-.4.5-3.8.9-7.6.9-4 0-6.8-.4-6.4-.9.3-.5 3.7-.9 7.5-.9 4 0 6.8.4 6.5.9zm14.9.1c-.3.5-1.4 1-2.3 1-1.5 0-1.5-.2-.2-1 2-1.3 3.3-1.3 2.5 0zm23.5-.2c0 .9-7.8.8-8.7-.2-.4-.3 1.5-.6 4-.6 2.6 0 4.7.4 4.7.8zm11 .2c0 .5-.5 1-1.1 1-.5 0-.7-.5-.4-1 .3-.6.8-1 1.1-1 .2 0 .4.4.4 1zm-31 .4c0 .3-.4.8-1 1.1-.5.3-1 .1-1-.4 0-.6.5-1.1 1-1.1.6 0 1 .2 1 .4zM95 109c-2 1.3-7.3 1.3-6.5 0 .3-.6 2.3-1 4.3-1 2.8 0 3.3.3 2.2 1zm48.5 0c-.3.5-1.2.7-2 .3-2.1-.7-1.9-1.3.6-1.3 1.1 0 1.8.4 1.4 1zm14.5 0c0 .5-.9 1-1.9 1-1.1 0-2.3-.5-2.6-1-.4-.6.5-1 1.9-1s2.6.4 2.6 1zm-15.3 4.4c6.8 3.1 13.8 9.7 14.9 14.1 2.4 9.6-5.7 19.3-19.8 23.6-5.8 1.8-8.7 2.1-16.2 1.6-20-1.1-33.5-11.6-31.2-24.2 1.3-6.9 11.1-14.9 21.3-17.5 2.1-.5 8.5-.8 14.3-.7 9.1.2 11.3.7 16.7 3.1zM88.5 112c-.3.5-1.1 1-1.6 1-.6 0-.7-.5-.4-1 .3-.6 1.1-1 1.6-1 .6 0 .7.4.4 1zm-25.4 2.7c-1.2 2-1.4 1.4-.5-1.2.4-.9.9-1.4 1.1-1.1.3.2 0 1.3-.6 2.3zm31.4.3c.3.5-1.1 3-3.2 5.5-3.5 4.2-3.9 4.4-4.7 2.6-1.3-2.9.1-7 2.7-8.1 3-1.2 4.5-1.2 5.2 0zm66 1.5c2.9 2.8 3.1 4.4.9 7.1-1 1.3-1.7 1.5-2 .7-.3-.6-1.8-3-3.4-5.2-2.8-3.9-2.7-4.8.8-5 .7-.1 2.4 1 3.7 2.4zm-98.8 2.7c-.3.8-.6.5-.6-.6-.1-1.1.2-1.7.5-1.3.3.3.4 1.2.1 1.9zm-2.1 8.9c-.8 3.5-1.4 5.6-1.5 4.7-.1-2.3 2-12 2.5-11.5.2.2-.2 3.3-1 6.8zM87 130c0 .8-2.4 2-4.1 2-.5 0-.9-2.6-.9-5.8v-5.7l2.5 4.4c1.4 2.3 2.5 4.7 2.5 5.1zm79.9 1.7c1.5 7.4 1.5 7.3-1.4 7.3-2.4 0-2.5-.2-2.5-6.5 0-8.5 2.2-9 3.9-.8zm20.8.5c-.3.7-.5.2-.5-1.2s.2-1.9.5-1.3c.2.7.2 1.9 0 2.5zm-104.9 2c-.7 1.9-3.8 2.2-3.8.4 0-1 .9-1.6 2.1-1.6 1.2 0 1.9.5 1.7 1.2zm5.2 1.3c0 .8-.4 1.5-.9 1.5-1.3 0-2.2-1.6-1.4-2.4 1.1-1.1 2.3-.6 2.3.9zm100.7 20.2c-.1 4.3-.3 1-.3-7.2 0-8.3.2-11.8.3-7.8.2 4 .2 10.7 0 15zm-131-.5c-.1 4-.3 1-.3-6.7s.1-11 .3-7.3c.2 3.7.2 10 0 14zM84.5 138c1.5.7 1 .9-2.2.9-2.4.1-4.3-.4-4.3-.9 0-1.2 3.7-1.2 6.5 0zm76.5 0c0 .5-.5 1-1.1 1-.5 0-.7-.5-.4-1 .3-.6.8-1 1.1-1 .2 0 .4.4.4 1zm-72 4c0 .5-2.5 1-5.5 1s-5.5-.5-5.5-1c0-.6 2.5-1 5.5-1s5.5.4 5.5 1zm79 0c0 .5-2.5 1-5.6 1-3.4 0-5.3-.4-4.9-1 .3-.6 2.8-1 5.6-1 2.7 0 4.9.4 4.9 1zm-71.3 8.2c-4.6 1.3-5.2 1-5.3-3.2l-.2-3.9 3.9 3.2c3.6 3 3.7 3.2 1.6 3.9zm-7.4-4.7c.2 1.1-8.7 2-11 1.1-.8-.3-1.1-1.1-.8-1.6.8-1.4 11.4-.9 11.8.5zm79.1-.6c.9 1.3-2 2.1-7.9 2.1-5.1 0-7.9-1.3-5.3-2.3 2.2-.9 12.7-.7 13.2.2zM90 149c0 .6-2.8 1-6.5 1s-6.5-.4-6.5-1 2.8-1 6.5-1 6.5.4 6.5 1zm79 0c0 .6-3.7 1-9 1s-9-.4-9-1 3.7-1 9-1 9 .4 9 1zm-80.2 3.2c-.5 1.4-8 2.3-10.5 1.4-3-1.2 0-2.6 5.3-2.6 4 0 5.5.4 5.2 1.2zm60.3-.2c.5 0 .9.8.9 1.8s1.4 3.1 3 4.7c2.1 2 3 3.8 2.9 5.9l-.1 3.1-.7-3.1c-1.1-4.4-1.6-5-7.1-8-2.8-1.5-5-3.1-5-3.5 0-1 2.2-1.8 3.8-1.3.8.2 1.8.4 2.3.4zm19.4.5c0 1.1-13.8 2-16.2 1.1-.8-.3-1.1-1.1-.8-1.6.9-1.4 17-.9 17 .5zm-73.8 3.4c-.1 1.6-.4 2.7-.6 2.5-.2-.2-1 .1-1.8.7-.9.8-1.3.8-1.3.1 0-.6.5-1.4 1-1.7.6-.3 1-1.5 1-2.6 0-1 .4-1.9 1-1.9.5 0 .8 1.3.7 2.9zm29.3-.4c4.7 0 10.1-.2 12-.5l3.5-.5v12c0 9.9-.4 13.2-2.4 18.8-3.1 9.2-7.4 13.7-13 13.7-3.1 0-4.8-.6-6.6-2.4-3.1-3.2-6.2-9.3-8-16.3-1.5-5.6-2.1-24.4-.9-25.6.4-.3 2-.3 3.8.1 1.7.4 6.9.7 11.6.7zm-35 .5c0 .5-2.5 1-5.5 1s-5.5-.5-5.5-1c0-.6 2.5-1 5.5-1s5.5.4 5.5 1zm79 0c0 .6-3.1 1-7.4 1-4.1 0-7.8-.5-8.1-1-.4-.6 2.3-1 7.4-1 4.7 0 8.1.4 8.1 1zm-63 8.9c0 3.7.3 9 .7 11.7.6 4.6.5 4.8-1.1 3.5-4.5-3.8-6.1-13.3-3.1-19.1 2.4-4.7 3.5-3.5 3.5 3.9zm40.8-5.7c.5.7 1.5 3.1 2.2 5.3 1.5 5.2 0 11.2-3.6 14.6l-2.7 2.4.7-4.9c.3-2.7.6-8 .6-11.7 0-6.7.7-8.2 2.8-5.7zM83 160c0 .5-1.1 1-2.5 1s-2.5-.5-2.5-1c0-.6 1.1-1 2.5-1s2.5.4 2.5 1zm7.4 1.2c.3 1.3.6 4.2.6 6.5 0 4.2 0 4.3-3.5 4.3H84v-6.5c0-6.5 0-6.5 2.9-6.5 2.1 0 3 .6 3.5 2.2zm61.1-1.2c.3.5.2 1-.4 1-.5 0-1.3-.5-1.6-1-.3-.6-.2-1 .4-1 .5 0 1.3.4 1.6 1zm16.5 0c0 .5-2.4 1-5.4 1-3 0-5.8-.5-6.1-1-.4-.6 1.7-1 5.4-1 3.4 0 6.1.4 6.1 1zM61.6 179.8c-.5.5-3.6-13.2-3.5-15.5 0-1 .9 2 2 6.6 1 4.7 1.7 8.6 1.5 8.9zM83 164c0 .5-.9 1-2 1s-2-.5-2-1c0-.6.9-1 2-1s2 .4 2 1zm14.5 0c-.3.5-1.5 1-2.6 1-1 0-1.9-.5-1.9-1 0-.6 1.2-1 2.6-1 1.4 0 2.3.4 1.9 1zm56.3 1.2c-.2 1.3-.7 2.3-1.3 2.3-.5 0-1.1-1-1.3-2.3-.2-1.5.2-2.2 1.3-2.2s1.5.7 1.3 2.2zM167 164c0 .5-1.6 1-3.5 1s-3.5-.5-3.5-1c0-.6 1.6-1 3.5-1s3.5.4 3.5 1zm20.7 3.2c-.3.8-.6.5-.6-.6-.1-1.1.2-1.7.5-1.3.3.3.4 1.2.1 1.9zM83 166.9c0 1.4-1.8 2.3-3 1.6-.6-.4-.8-1.1-.5-1.6.8-1.2 3.5-1.2 3.5 0zm13.8.3c-.7 1.9-3.8 2.2-3.8.4 0-1 .9-1.6 2.1-1.6 1.2 0 1.9.5 1.7 1.2zm69.2.3c0 1.6-5.5 2.2-6.4.6-.8-1.3.5-2.1 3.6-2.1 1.8 0 2.8.5 2.8 1.5zm-8 4c0 4.5 0 4.5-3.5 4.5-1.9 0-3.5-.4-3.5-.9 0-.7 5.7-7.4 6.8-8 .1 0 .2 1.9.2 4.4zm28.7.7c-.3.7-.5.2-.5-1.2s.2-1.9.5-1.3c.2.7.2 1.9 0 2.5zM83 171c0 .5-.4 1-1 1-.5 0-1-.5-1-1 0-.6.5-1 1-1 .6 0 1 .4 1 1zm14 0c0 .5-.9 1-2 1s-2-.5-2-1c0-.6.9-1 2-1s2 .4 2 1zm68 0c0 .5-1.1 1-2.5 1s-2.5-.5-2.5-1c0-.6 1.1-1 2.5-1s2.5.4 2.5 1zm-67.2 3.8c.3 1-1.4 1.2-7.4 1-5.2-.2-7.9-.7-8.2-1.6-.3-1 1.4-1.2 7.4-1 5.2.2 7.9.7 8.2 1.6zm66.2-.3c0 1.6-3.5 2.1-4.4.6-.8-1.2.4-2.1 2.6-2.1 1 0 1.8.7 1.8 1.5zm19 9.5c-3.7 10.4-9.5 19.5-18 28.3-5.7 6-16.2 13.7-18.6 13.7-.5 0 1.5-1.4 4.4-3.2 13.3-7.7 26.3-24.2 31.8-40.3 1.6-4.7 3-8.1 3.2-7.7.1.5-1.1 4.7-2.8 9.2zm-87.5-6c-.3.5-3.3 1-6.6 1s-5.9-.4-5.9-1 2.9-1 6.6-1c4.1 0 6.3.4 5.9 1zm67.5 0c0 .6-3 1-7.1 1-4.4 0-6.8-.4-6.4-1 .3-.6 3.5-1 7.1-1 3.6 0 6.4.4 6.4 1zm-64.4 2.4c.8.8 1.4 1.9 1.4 2.5 0 .6 1.3 1.1 2.9 1.1 2.9 0 6.1 2.2 6.1 4.1 0 .5-1.1.9-2.4.9-1.3 0-3.1.3-4 .6-1 .4-1.6.1-1.6-.8 0-.7-1.3-1.9-3-2.5-1.6-.6-3-1.7-3-2.3 0-1 .4-.9 1.5 0 .9.7 1.9 1 2.3.6.4-.4-.4-1.5-1.6-2.5-1.3-.9-2-2-1.6-2.4 1-1 1.3-.9 3 .7zM64 184.5c0 .5-.5.3-1-.5s-1-2-1-2.5c0-.6.5-.3 1 .5s1 1.9 1 2.5zm29.5-2.5c-.3.5-2.4 1-4.6 1-2.1 0-3.9-.5-3.9-1 0-.6 2.1-1 4.6-1 2.7 0 4.3.4 3.9 1zm67.5 0c0 .6-2.6 1-5.9 1-3.3 0-6.3-.5-6.6-1-.4-.6 1.8-1 5.9-1 3.7 0 6.6.4 6.6 1zm-14.2 2.7c-.3 3.8-2.5 6.1-5.2 5.6-3.1-.6-2.4-4.3 1.2-6.5 3.8-2.3 4.2-2.2 4 .9zm-53 1.1c.3 1-.5 1.3-2.9 1-1.8-.2-3.4-.9-3.7-1.6-.3-1 .5-1.3 2.9-1 1.8.2 3.4.9 3.7 1.6zm65-.6c-.5 1.5-9.8 2.4-9.8 1 0-1.7 1.4-2.2 5.8-2.2 3 0 4.2.4 4 1.2zm-83.3 19.6c2.8 3.7 5.2 7.6 5.5 8.7.3 1.1 2.9 3.9 5.8 6.2 6.7 5.5 5.8 5.6-1.3.2-3.8-2.8-5.5-4.8-5.5-6.4 0-1.2-.9-3-2-4-3.8-3.4-14.1-20.5-14-23.1.1-.5 1.5 1.9 3.3 5.4 1.8 3.4 5.5 9.3 8.2 13zm23.3-15.6c-.5 1.6-4.1 2.2-7.4 1.4-4.2-1.1-2.6-2.6 2.7-2.6 3.6 0 4.9.4 4.7 1.2zm58 0c-.3.7-2.3 1.4-4.6 1.6-3.3.2-4.2 0-4.2-1.2s1.1-1.6 4.6-1.6c3.2 0 4.4.4 4.2 1.2zm-56.3 3.8c-.3.5-2.4 1-4.6 1-2.1 0-3.9-.5-3.9-1 0-.6 2.1-1 4.6-1 2.7 0 4.3.4 3.9 1zm53.5 0c0 .5-1.3 1-2.9 1-1.7 0-3.3-.5-3.6-1-.4-.6.8-1 2.9-1 2 0 3.6.4 3.6 1zm-41.6 2.2c.9 1.2 1.6 2.6 1.6 3 0 .5-2.7.8-6 .8-5.3 0-6-.2-6-2 0-4.1 7.8-5.5 10.4-1.8zm32.6-.2c1.2 1.2 1.8 2.5 1.5 3-.7 1.2-12.5 1.4-12.5.2 0-.4.7-1.8 1.6-3 1.9-2.8 6.7-2.9 9.4-.2zm-46 5c.6 1.1 2 2 3 2 1.1 0 2 .5 2 1.2 0 1-8.9 15.5-11.1 18.2-1 1.1-9.9-6-9.9-7.8 0-1.5 3-4.4 6.2-6 1.3-.6 2.4-2 2.6-3.1.4-2.1 4-6.5 5.3-6.5.5 0 1.3.9 1.9 2zm-9.2 4.3c.2 1-.3 1.7-1.2 1.7-.9 0-1.6-.2-1.6-.4s-.3-1.2-.6-2.1c-.5-1.3-.2-1.6 1.2-1.3 1 .2 2 1.1 2.2 2.1zm51.7-.3c-.4.6-7.5 1-18.1 1-10.9 0-17.4-.4-17.4-1s6.7-1 18.1-1c11.7 0 17.8.3 17.4 1zm-33.1 3.5l3.6 1.5v9.6c0 10.8 1 10.2-9.7 6.2-7.8-2.9-7.9-3.3-2.5-11.6 2.5-4 4.7-7.2 4.8-7.2.1 0 1.8.7 3.8 1.5zm23.6 11.7v11.6l-4.1.7c-2.2.4-6.5.4-9.5 0l-5.4-.6v-23.4h19v11.7zm3.2-2.2c-.4 2.7-.1 3 2.2 3 2.5 0 3-.7 2.7-4.3-.2-1.5.8-1.7 9.3-1.7 5.3 0 9.6.4 9.6.9 0 1.4-10.2 8-15.5 10-10.3 3.8-9.5 4.2-9.5-3.8 0-3.9.4-7.1.8-7.1.5 0 .7 1.3.4 3zm3.8.5c0 .8-.7 1.5-1.5 1.5s-1.5-.7-1.5-1.5.7-1.5 1.5-1.5 1.5.7 1.5 1.5zm-27.2 13.4c.3.7 0 2.2-.6 3.1-.9 1.5-.7 1.9.9 2.3 1.1.3 1.8 1.3 1.8 2.4-.1 1.6-.2 1.6-.6 0-.2-.9-1.1-1.7-1.8-1.7-2 0-2.9-2-1.6-3.3 2.2-2.2.9-3.5-6.4-6.2-4.1-1.5-7.7-3.1-8-3.5-.2-.4 3.2.7 7.6 2.4 4.5 1.7 8.4 3.7 8.7 4.5zm33.2-4.5c0 .3-2.2 1.2-5 2.1-5 1.7-5.8 2.7-4.1 5.4.7 1.1.3 2.1-1.5 3.8-1.3 1.2-2.4 3.1-2.4 4.1 0 1.1-.7 2.6-1.7 3.3-1.4 1.3-1.5 1.2-.5-.6.5-1.1 1.6-3.5 2.2-5.3.7-1.7 2-3.2 2.8-3.2 1.2 0 1.3-.3.4-1.2-.7-.7-1.2-2.2-1.2-3.3 0-1.7 1.1-2.5 4.8-3.7 5.2-1.8 6.2-2 6.2-1.4zm-27.4 8.3c.7 1 1.4 2.6 1.4 3.5 0 3.2 1.9 1.9 2.2-1.5.2-2 .8-3.2 1.8-3.2s1.6 1.2 1.8 3.2c.2 1.8.7 3.3 1.1 3.3.4 0 1.1-1.5 1.6-3.3.7-2.2 1.6-3.2 3-3.2 2.2 0 2.2.2.2 5.7-1.8 5-2 5.2-7.5 5.4-5 .2-7.2-.9-7.2-3.5 0-.9-.7-2.9-1.5-4.5-1.9-3.5-1.9-3.6.1-3.6.9 0 2.3.8 3 1.7zm.9 11.3c1.4.5 2.5 1.5 2.5 2.1 0 .7 1 .9 2.5.7 1.3-.3 2.2-.1 1.9.3-.9 1.5-4.4 1-5-.6-.4-.8-1.1-1.5-1.7-1.5-1.7 0-4.7-3.2-4.6-4.9 0-1 .3-.8.9.7.5 1.2 2.1 2.7 3.5 3.2zm5.5 1c0 .5-.4 1-1 1-.5 0-1-.5-1-1 0-.6.5-1 1-1 .6 0 1 .4 1 1z"/><path d="M121 42.5c-1.7 2-.5 4.5 2 4.5 1.1 0 2.3-.7 2.6-1.5.6-1.5-1.1-4.5-2.6-4.5-.4 0-1.3.7-2 1.5zm3.1 2c-.1 1.5-2.4 1.2-2.9-.3-.3-.9.2-1.3 1.2-1 1 .1 1.7.7 1.7 1.3zM100.7 44.6c-1.6 1.6-.6 3.5 1.6 3.2 1.2-.2 2.2-1 2.2-1.8 0-1.6-2.6-2.5-3.8-1.4zM103 46c0 .5-.4 1-1 1-.5 0-1-.5-1-1 0-.6.5-1 1-1 .6 0 1 .4 1 1zM141.5 45c-.4.7-.3 1.6.3 2.2 1.4 1.4 4.5.2 4-1.5-.6-1.6-3.4-2.1-4.3-.7zM120.7 71.7c-.4.3-.7 2.9-.6 5.7 0 4.1.2 4.6.9 2.8 1.2-2.8 5-3 5-.2 0 1.1.4 2 .9 2 1.5 0 .7-9-.9-10-1.8-1.1-4.4-1.3-5.3-.3zm5.3 2.8c0 .8-.9 1.5-2 1.5s-2-.7-2-1.5.9-1.5 2-1.5 2 .7 2 1.5zM111.4 73.1c-3.1.9-3.2 1-2.3 5.1 1.3 5.5 1.3 5.5 4.9 5 4.2-.6 5.1-2.4 1-2-4.2.4-5.2-1.9-1.3-2.9l2.8-.7-2.9-.6c-3.3-.6-3.8-2.3-.9-2.8 1-.2 2.2-.8 2.8-1.3 1.1-1.1.1-1.1-4.1.2zM137.3 74.7c-2 .7-1.5 4.1.7 5.3 2.3 1.2 2.7 4 .6 4-.8 0-2.2-1-3-2.2-1.1-1.6-1.6-1.8-1.6-.7 0 2.2 2 3.9 4.6 3.9 3.1 0 4-3.1 1.5-5.2-1.2-.9-2.1-2.1-2.1-2.7 0-1.7 2.8-1.3 3.9.6 1 1.7 1 1.7 1.1.1 0-1.4-2.9-4-4.2-3.7-.2 0-.9.3-1.5.6zM100 77.1c-3.4 1.4-3.4 1.2-.9 6.1 2.8 5.5 2.4 5.3 5.4 3.4 3-2 3.4-6.5.7-8.9-2.1-1.9-1.9-1.9-5.2-.6zm5 3c1.4 2.5.6 4.9-1.4 4.9-1.9 0-4-3.6-3.2-5.6.8-2.1 3.4-1.7 4.6.7zM147.1 79.6c1.1 1.3 1 2.1-.6 5-2.5 4.6-1.3 5.4 1.4.9 1.6-2.8 2.5-3.5 4.1-3 3 1 2.4-.1-1.4-2.4-4-2.5-5.3-2.7-3.5-.5zM86 87.5L83.6 90l3.4 3.5c1.9 1.9 3.8 3.5 4.4 3.5.6 0 .5-.5-.2-1.2-1.5-1.5-1.6-4.5-.1-5.4.6-.3 1.6-.1 2.2.5 2.6 2.6 2.6.8 0-2.4-3.3-4.2-4.2-4.3-7.3-1zm4.4.3c.9 1.5-1.2 3.5-2.9 2.8-1.4-.5-1.5-.9-.5-2.1 1.4-1.7 2.6-1.9 3.4-.7zM78.9 95.6l-2.4 2.6L80 101c1.9 1.6 4 3 4.6 3 1.3 0 4.8-4.9 4-5.7-.2-.3-1.1.4-1.8 1.6-1.4 2.3-3.8 2.8-3.8.8 0-.7.5-1.8 1.2-2.5.6-.6.9-1.5.5-1.9-.4-.3-1.3.2-2.1 1.2-.7 1-1.8 1.5-2.5 1.1-.9-.6-.8-1.3.5-2.7 2.7-2.9 1.1-3.2-1.7-.3zM163.7 101.6l-3.8 2.5 2.2 3c2.5 3.6 3.8 3.2 1.4-.4-2.2-3.5.1-4.9 2.6-1.6 1.5 1.9 1.9 2 1.9.7 0-.9-.5-2-1.1-2.4-.8-.4-.7-1 .1-1.8.8-.8 1.6-.5 3 1.4 2.3 3 2.7 1.4.4-1.8-1.9-2.8-2.1-2.8-6.7.4zM74 102.8c0 .5.9 1.7 2 2.7 3.2 2.9 2.6 4.4-1.5 3.5-2.1-.5-3.8-.4-4.1.2-.7 1.2-.8 1.1 4.4 3.7 4.3 2.2 5.5 1.9 2.5-.6-1.6-1.3-1.6-1.4 1-1 3 .5 3.7-1.3 1.2-3.3-2.2-1.9-1.8-3.2.6-2 3.5 1.9 3.2.4-.4-1.9-3.6-2.2-5.7-2.7-5.7-1.3zM168.8 109.8c-3.7 1.7-5.6 4.1-2 2.7 5.3-2.2 5.6-2 2.9 2-1.5 2.2-2.4 4.1-2.2 4.3.7.7 9.5-2.9 9.5-3.9 0-.5-1.1-.4-2.6.1-3.7 1.4-3.8 1.3-1.5-2.4 1.2-1.8 2.1-3.6 2.1-4 0-1-2.2-.5-6.2 1.2zM67.5 116.9c-.3.6 1.3 2.4 3.5 4.2 4.4 3.6 4.8 4.4 2.3 5.2-1 .2-2.5.8-3.5 1.2-1.1.4-1.8 0-2.3-1.4-.3-1.2-1.1-2.1-1.6-2.1s-.3 1.3.6 3c1.5 2.9 1.5 3-.7 3-3.8 0-.6 1.9 4.2 2.5 3.9.5 4.2.4 2.3-.6-3-1.6-2.9-2.7.2-3.9 3.1-1.2 4.1-3.5 2.5-5.5-1.5-1.8-.6-4.5 1.5-4.5.8 0 1.5-.5 1.5-1 0-1.3-9.7-1.3-10.5-.1zM73 119c0 .5-.2 1-.4 1-.3 0-.8-.5-1.1-1-.3-.6-.1-1 .4-1 .6 0 1.1.4 1.1 1zM172 120.9c0 .5.5 1.3 1 1.6.6.3 1 .2 1-.4 0-.5-.4-1.3-1-1.6-.5-.3-1-.2-1 .4zM172 126.5c-.8.9-1 2.8-.6 5 .6 3.1 1 3.5 2.9 2.9 3.1-.9 3.6-1.6 2.7-3.9-.7-1.7-.9-1.7-.9-.3-.1 2.3-2.7 2.3-3.5.2-.9-2.4 1.3-4.5 4.3-4.2 2.2.3 2.6.8 2.5 3.5-.2 3.8.1 4.1 1.6 1.3 1.7-3.2-.4-6-4.4-6-1.9 0-3.9.7-4.6 1.5zM175.3 136.7c-1.9.4-2.3 1.1-2.3 3.9 0 1.9.4 3.4.8 3.4s.8-1.2.7-2.7c0-3.8 2-3.9 3.2-.1l1.1 3.3.1-3.3c.1-4.1 2.3-3.9 3.2.4.6 2.5.7 2.4.8-1.4.1-4 0-4.2-2.6-4.1-1.6.1-3.8.4-5 .6zM62.6 141.8c-.4 1.8-.6 3.6-.3 3.9.3.2 2.4.7 4.7 1 3 .4 4.5.2 5.1-.8 1.2-1.9 1.1-7.2-.1-6.4-.5.3-1 1.7-1 3.1 0 3.5-3 3.2-3.1-.4-.1-2.7-.1-2.7-.8-.3-1 3.7-2.9 3.7-3.3-.1l-.3-3.3-.9 3.3zM175.8 147.7c4 .5 4.1 1.8.2 3.8-4.4 2.3-3.7 3.5 2 3.5 2.9 0 5-.5 5-1.1 0-.5-.4-.8-.9-.5-.5.4-1.9.3-3-.2-1.9-.7-1.8-.9 1.4-2.6 1.9-1.1 3.5-2.3 3.5-2.8 0-.4-2.6-.7-5.7-.6-3.6.1-4.5.3-2.5.5zM64 150.8c-1.8 1.4-2.2 2.5-1.6 4.5.6 2.4 1.1 2.7 5.2 2.7 5.2 0 6.3-1.4 4.2-5.7-1.6-3.4-4.7-4-7.8-1.5zm6.8 2.9c.3 2-.1 2.3-3.2 2.3-2.8 0-3.6-.4-3.6-1.8 0-2.6 1-3.3 4-3 1.7.2 2.6 1 2.8 2.5zM172.7 159.2c-1 3.5-.8 6 .3 5.3.6-.3 1-1.7 1-3.1 0-3.8 3-3.1 3.1.8.1 3 .2 3 .8.9 1-3.8 3.1-3.8 3.1-.1 0 1.8.4 2.9 1 2.5.6-.3 1-2.2 1-4.1 0-2.7-.4-3.4-1.9-3.4-1 0-3.2-.3-4.8-.6-2.6-.5-3.1-.2-3.6 1.8zM72.1 162.2c-.1 4.4-3.1 5.6-3.1 1.3 0-1.4-.4-2.5-.9-2.5-.6 0-.9 1.2-.8 2.6.3 3.9-1.8 4-3 .2-1-3-1.1-3-1.2-.8-.1 4.4 1.2 5.3 6.3 4.6 3.9-.6 4.6-1.1 4.5-2.9 0-1.2-.4-3.1-.9-4.2-.7-1.6-.9-1.3-.9 1.7zM172.8 168.2c1.2.6 2.2 1.6 2.2 2.3 0 1.7-2.1 3.4-3.6 2.8-.8-.3-1.4-.1-1.4.5 0 .5 1.9 1.2 4.3 1.5 3.2.5 4.5.2 5.5-1 2.3-3.1 1.4-5.1-2.5-6.2-4.9-1.4-7.5-1.3-4.5.1zm6.2 3.7c0 2.3-1.6 3.6-2.5 2.1-.9-1.4.1-4 1.5-4 .5 0 1 .9 1 1.9zM74.4 171.7c.4 2 .1 3.3-.8 3.6-1.8.7-2.6-.1-2.6-2.5 0-1-.5-1.8-1-1.8-.6 0-.8 1-.4 2.4.9 3.8-1.4 4.1-3.1.4l-1.5-3.3.5 3.5c.7 4.7 1.4 5.1 5.9 3.8 4.5-1.4 5.2-2.7 3.7-6.5l-1.1-2.8.4 3.2zM169 176.8c0 .5 1.2 2.1 2.6 3.6 1.5 1.4 2.2 2.6 1.6 2.6-.6 0-1.3-.4-1.6-.9-.8-1.2-5.4 1-6.1 2.8-.3.8-.1 1.9.4 2.4 1.2 1.2-.6 5-2 4.2-.5-.4-1.5-.3-2.1.2-.9.5-.3 1 1.7 1.4 8.5 1.9 10.7.3 6-4.1-3.9-3.6-3.3-5 2.1-4.7 6.1.3 6.5-1.3 1.4-5.3-2.2-1.7-4-2.7-4-2.2zm.5 14.2c.3.5-.1 1-.9 1-.9 0-1.6-.5-1.6-1 0-.6.4-1 .9-1 .6 0 1.3.4 1.6 1zM70.8 180.7c-1.6.2-2.8.9-2.8 1.5s1.4.8 3.8.4l3.7-.6-2.7 2.3c-3.7 3-3.5 3.7 1 3.7h3.7l-3 2.5c-1.6 1.3-2.5 2.4-2 2.5 1.5 0 8.6-6 8.1-6.9-.3-.4-2-.6-3.8-.3l-3.3.5 2.3-2.5c3.5-3.9 2.8-4.3-5-3.1zM80.1 195c-1.8 1.6-2.7 1.8-3.8.9-2.3-2-2.4-.5 0 2.9s4.4 4.4 2.8 1.3c-.9-1.5-.5-2.1 2.4-3.7 1.9-1 3.5-2.2 3.5-2.6 0-1.4-2.4-.8-4.9 1.2zM158.7 195.8c-2.4 2.6-2.1 3.9.3 1.7 1.9-1.7 2.1-1.7 5.5.9 1.9 1.5 3.5 2.3 3.5 1.7 0-.9-6.1-6.1-7.2-6.1-.3 0-1.2.8-2.1 1.8zM150 208.3c0 2.7 1.9 4 3.9 2.7 2-1.2.8-4.5-1.7-4.8-1.8-.3-2.2.1-2.2 2.1zm3.8.5c.2.7-.3 1.2-1.2 1.2-.9 0-1.6-.7-1.6-1.6 0-1.7 2.2-1.4 2.8.4zM108.4 124.4c-.3.8-.4 2.5-.2 3.8.2 1.8.9 2.3 3.2 2.3 3.6 0 5.6-2.7 4-5.3-1.4-2.2-6.2-2.8-7-.8zM133 124.5c-1.9 2.3.2 6.5 3.3 6.5 2.9 0 4.7-1.8 4.7-4.6 0-3.4-5.6-4.8-8-1.9zm3 2.5c0 .5-.5 1-1.1 1-.5 0-.7-.5-.4-1 .3-.6.8-1 1.1-1 .2 0 .4.4.4 1zM111 142.4c0 2.1 7.4 4.6 13.6 4.6 5.6 0 11.6-1.8 12.9-4 1.3-2.1-.5-2.4-4-.7-4.4 2.1-14 2.2-17.9.2-3.5-1.9-4.6-1.9-4.6-.1zM102.4 214.5c-.8 2 .4 3.5 2.6 3.5 2.3 0 3.2-1.3 2.4-3.4-.8-2-4.3-2.1-5-.1zm3.6 1c0 .8-.7 1.5-1.5 1.5-1.6 0-2-1.2-.8-2.3 1.1-1.2 2.3-.8 2.3.8zM120.7 217.7c-1.3 1.2-.7 4.1 1 4.7 2.1.8 4.8-1.7 4-3.8-.6-1.6-3.8-2.2-5-.9zm3.8 1.2c.7 1.2-1.2 2.4-2.5 1.6-1.1-.7-.4-2.5 1-2.5.5 0 1.1.4 1.5.9z"/></svg>